<?xml version="1.0" encoding="utf-8"?>
<!-- Generator: Adobe Illustrator 16.0.3, SVG Export Plug-In . SVG Version: 6.00 Build 0)  -->
<!DOCTYPE svg PUBLIC "-//W3C//DTD SVG 1.1//EN" "http://www.w3.org/Graphics/SVG/1.1/DTD/svg11.dtd">
<svg version="1.1" id="Layer_1" xmlns="http://www.w3.org/2000/svg" xmlns:xlink="http://www.w3.org/1999/xlink" x="0px" y="0px"
	 width="595.28px" height="339.031px" viewBox="0 0 595.28 339.031" enable-background="new 0 0 595.28 339.031"
	 xml:space="preserve">
<g>
	<path fill="#A21E22" d="M49.552,124.858h49.03c0,0-8.016,4.809-8.016,10.555c0,5.743,0,73.343,0,73.343l8.016,7.481l-7.548,7.548
		v46.024h16.099c0,0,7.614-4.274,7.614-12.958c0-8.683-7.08-13.894-7.08-13.894h38.743v26.853c0,0-16.565-1.603-16.565,17.902H52.09
		c0,0,7.615-3.606,7.615-13.225c0-9.62,0-50.099,0-50.099l-8.817-8.284l8.149-7.08c0,0,0-67.2,0-71.208
		C59.038,133.808,57.969,128.465,49.552,124.858z"/>
	<path fill="#A21E22" d="M163.099,210.888c0,0,0-65.728,0-71.071c0-5.345,2.286-10.154,8.037-12.292h-61.604
		c0,0,3.207,13.23-9.875,19.901h8.935v19.515c0,0,8.956-7.353,23.791-6.69c0,0,0-9.619,0-12.547c0-2.949,0.535-5.878,4.404-5.878
		c3.613,0,4.617,1.603,4.617,5.408c0,4.617,0,26.121,0,26.121h-32.534c0,0-1.069,5.215-9.213,6.007h8.806c0,0,0,37.685,0,41.297
		c0,3.59-1.196,8.934-7.352,12.014h61.326c0,0-1.924-11.159,8.7-21.784H163.099z M141.595,214.095c0,0.685-0.385,1.603-1.454,1.603
		h-7.502c-1.197,0-1.454-0.534-1.454-1.858v-25.523c0-1.732,0.128-2.801,1.474-2.801h7.333c0.812,0,1.603,0.129,1.603,1.603V214.095
		z"/>
	<path fill="#A21E22" d="M126.236,121.25c0,0,15.23-7.748,29.658-4.007c0,0,0.134-14.562,10.154-22.044
		c0,0-17.769,5.878-31.395,3.607C134.653,98.807,134.92,112.567,126.236,121.25z"/>
	<path fill="#A21E22" d="M234.807,126.328h-59.852c0,0,6.256,3.16,6.256,7.458c0,4.297,0,49.186,0,49.186l-6.256,5.762l6.256,5.104
		c0,0,0,27.43,0,31.528s-0.734,8.728-6.256,10.688c0,0,26.541,11.581,30.281,33.311v-30.283l5.522-4.274l-5.701-5.166v-35.268
		h13.539v-13.362h-13.716v-40.97h12.647c0,0,5.7,0.892,5.7,6.058c0,5.165,0,11.934,0,11.934H248.7v-17.992
		C248.7,140.043,234.807,137.728,234.807,126.328z"/>
	<rect x="224.738" y="170.682" fill="#A21E22" width="23.128" height="23.693"/>
	<path fill="#A21E22" d="M223.953,200.607h23.914v23.871l5.293,4.63l-5.293,4.988v65.195c0,0-4.312-18.526-24.501-21.197V234.63
		l-5.41-5.222l5.922-4.943L223.953,200.607z"/>
	<path fill="#A21E22" d="M329.035,146.271c0-14.962,12.463-18.746,12.463-18.746h-76.054c0,22.936-12.462,26.42-12.462,26.42h11.03
		v30.994l-11.03,5.344l10.859,6.222c0,0,0,36.702,0,45.079c0,8.358-9.619,14.771-9.619,14.771h48.266
		c2.864,41.683-36.146,45.786-36.146,45.786c58.42,9.447,63.058-39.182,63.058-53.074c0-13.896,11.029-18.363,11.029-18.363h-11.394
		C329.035,230.704,329.035,161.234,329.035,146.271z M303.063,195.797c0,0,0,28.323,0,31.894c0,3.549-0.747,7.843-5.899,7.843
		c-5.151,0-7.309-4.104-7.309-7.311c0-3.206,0-73.039,0-73.039s-0.257-7.161,6.007-7.161c8.144,0,7.159,7.161,7.159,7.161
		l0.042,30.46l-10.366,5.172L303.063,195.797z"/>
	<path fill="#A21E22" d="M530.242,188.723c-3.891,3.099-9.363,3.207-13.51,2.009c-5.002-1.455-9.746-17.656-36.873-26.057
		c-27.123-8.422-65.856,4.403-65.856,4.403s0-25.117,0-31.935c0-6.819,5.879-9.619,5.879-9.619h-59.851
		c-3.207,12.696-13.233,13.488-13.233,13.488v41.425l-6.412,4.809l6.412,5.345v37.279l-5.3,5.663l5.3,6.222v29.263
		c6.947-27.533,30.055-35.485,30.055-35.485l-5.474-5.663v-30.589c17.102-14.171,49.036-23.513,49.036-23.513
		c56.646-16.587,82.552,16.951,85.246,33.795c2.65,16.822-13.895,33.133-32.748,20.712c-18.488-12.205-5.557-39.543-5.088-40.571
		c-21.759,8.059-18.018,28.816-18.018,28.816c-6.137-1.882-11.096,0.791-11.096,0.791c8.957,1.475,11.886,9.491,11.886,9.491
		c9.62,26.056,39.288,29.391,59.338,14.428c20.029-14.962,10.282-43.949,10.282-43.949
		C530.756,196.739,530.242,188.723,530.242,188.723z M389.828,175.213c0,0-10.434,4.147-18.449,10.175v-39.159
		c0,0,4.275-1.604,6.029-6.541h12.42V175.213z"/>
	<path fill="#A21E22" d="M413.735,182.171c0,0-12.691,4.008-23.914,10.02c0,0,0,32.598,0,35.937c0,3.34-2.806,6.012-5.075,6.546
		h33.933c0,0-5.077-2.002-5.077-7.213C413.602,222.251,413.735,182.171,413.735,182.171z"/>
	<g>
		<path fill="#A21E22" d="M456.192,94.246c0,0-20.801,19.353-21.285,19.929c-0.486,0.582,0.678,2.323-0.486,3.484
			c-1.157,1.16-1.784,2.805-3.284,2.272c0,0-0.486,1.595,0.434,2.179c0,0-0.867,1.547,0.391,3.047
			c1.255,1.499,2.365,1.691,2.365,1.691s-0.287-1.401,0.824-2.223c1.118-0.824,5.804-4.066,5.804-4.066s-2.08,6.339-2.71,7.21
			c-0.624,0.871-1.835,0-1.835,0s0.048,1.837,1.356,2.466c1.304,0.632,3.141,0.196,3.432,0.968c0,0,0.438-0.336,0.387-1.307
			c-0.046-0.968,5.222-11.269,10.594-10.158c0,0-0.195-1.694-2.325-2.226c0,0,0.586-1.451,0.389-2.659
			c-0.192-1.211,6.531-4.933,11.468,1.693c0,0-0.393,2.661,0,4.79c0.386,2.124,1.449,5.125,0.627,6.236
			c-0.821,1.115-3.582,5.519-6.242,5.854c-2.655,0.338-6.529,1.453-7.207,4.887c0,0,1.354-0.82,1.646-0.386
			c0,0-0.436,1.112-0.19,1.693c0,0,1.014-1.307,1.692-1.403c0,0-0.291,0.917-0.097,1.644c0,0,1.59-3.145,3.334-2.855
			c1.742,0.292,5.661-0.773,7.596-2.611c1.934-1.837,2.807-3.291,2.807-3.291s-0.775-1.305-1.015-2.368c0,0,2.196,3.39,4.322,4.649
			c0,0,2.159-1.843,2.444-3.683c0,0-0.146,3.581-2.271,4.5c-2.126,0.918-4.4,0.241-6.916,2.371
			c-2.512,2.127-2.807,3.144-2.658,4.932c0,0,0.672-1.354,1.06-1.307c0,0-0.049,1.307,0.196,1.984c0,0,0.726-1.596,1.547-1.79
			c0,0-0.193,1.403,0.144,2.033c0,0,0.685-3.191,2.467-3.578c1.792-0.391,3.734,0.192,5.663-0.968
			c1.934-1.162,3.191-2.953,3.191-2.953s-0.139,2.177-3.191,3.773c-3.048,1.596-0.099,8.032,3.191,11.126
			c3.288,3.095,3.387,6.191,2.712,6.771c-0.681,0.581-3.098,2.564-7.743,1.79c-4.643-0.771-5.124,0.676-5.512,2.953
			c0,0,0.723-1.016,1.208-0.967c0,0-0.631,1.209-0.293,2.032c0,0,0.92-1.695,1.742-1.646c0,0-0.724,0.824-0.432,1.985
			c0,0,1.208-2.322,3.389-1.887c2.169,0.435,2.899,0.336,3.184,0.242c0,0,0.44,1.162-0.235,1.934c0,0,2.179-0.34,2.03-2.033
			c0,0,2.901-2.176,5.125-1.934c0,0,1.018-1.936,0.486-3.627c-0.529-1.692-1.097-4.448,0.151-5.224
			c1.252-0.774,3.231-1.354,4.879-5.321c0,0-0.173,2.95-2.813,4.439c0,0,7.555,4.025,11.664,7.071
			c4.111,3.049,12.727,4.5,17.804-0.483c5.078-4.982,9.774-16.785,11.124-19.441c1.352-2.664,3.822-4.744,6.146-4.697
			c2.322,0.052,6.58,1.982,7.06,7.885c0,0,1.355-6.626-1.597-10.688c-2.95-4.066-9.722-4.403-13.252,0.87
			c-3.53,5.271-7.738,17.221-14.177,18.381c-6.429,1.163-8.074-1.354-9.67-4.835c-1.596-3.484-0.822-5.128-3.53-8.612
			c0,0,10.785-9.191,15.186-19.253c4.404-10.059,8.997-7.643,12.53-5.562c3.53,2.082,9.382,3.387,13.549,2.032
			c0,0-6.054-4.4-3.293-10.979c2.755-6.578,10.208-19.932,28.974-22.979c0,0-12.044-4.886-11.945-18.526
			c0.096-13.642,10.689-21.913,12.43-22.879c0,0-10.985,4.643-20.168,4.739c-9.192,0.095-21.626-0.194-19.451-11.078
			c0,0-7.784,3.871-11.121,13.447c-3.34,9.578-2.812,19.398-12.438,23.462c0,0,1.453,1.451,3.486,0.725
			c0,0-5.712,33.476-23.558,43.343c0,0-3.49,0.29-5.659-1.161c-2.177-1.452-9.339-7.644-16.695-7.062l6.728-8.564l-10.691,8.032
			L456.192,94.246z"/>
		<path fill="#A21E22" d="M481.793,150.148l5.599,3.289c0,0-2.179,3.336,0.871,4.885c0,0,0.674,7.061-2.322,9.191
			c0,0-2.854-0.726-4.064,0c0,0-0.534-2.225,1.116-2.757c1.642-0.533,3.575-1.716,2.66-4.378
			C484.733,157.719,480.004,156.133,481.793,150.148z"/>
		<path fill="#A21E22" d="M476.604,109.812c0,0,8.609-3.874,14.319-15.674c0,0-0.386-5.708,3.776-7.739l2.998-9.775
			c0,0-16.543-9.865-13.832-24.475c0,0-6.585,11.32-12.677,12.093c-6.096,0.775-5.905-7.157-5.905-7.157s-2.322,7.546-0.966,17.027
			c1.354,9.479,0.483,13.642-1.258,16.157c0,0,1.453,0.871,2.612-0.387C465.672,89.88,473.8,92.975,476.604,109.812z"/>
	</g>
</g>
<g>
	<path fill-rule="evenodd" clip-rule="evenodd" fill="#421218" d="M557.021,525.762c-2.531,2.422-5.395,4.587-7.516,7.325
		c-3.419,4.413-4.839,9.637-4.864,15.278c-0.012,2.978,1.09,5.036,3.658,6.444c1.817,0.994,3.607,1.773,3.928,4.456
		c0.188,1.562,1.907,2.938,2.935,4.398c2.023,2.869,1.924,3.167-1.383,3.857c-11.514,2.401-19.744,8.964-25.07,19.422
		c-1.928,3.791-2.443,7.155,0.778,10.486c0.688,0.712,0.892,1.889,1.318,2.854c-1.08,0.374-2.136,0.958-3.244,1.085
		c-4.28,0.482-8.267-0.573-12.007-2.645c-4.606-2.554-7.098-2.097-9.298,2.622c-3.81,8.162-9.144,15.095-15.658,21.129
		c1.219,3.772,3.635,4.829,6.735,2.513c1.978-1.477,3.59-3.61,4.938-5.723c2.146-3.36,3.798-7.037,5.908-10.423
		c3.257-5.226,9.285-6.92,14.124-3.869c1.628,1.026,2.861,2.821,3.992,4.46c1.289,1.865,2.125,4.045,3.408,5.918
		c2.352,3.436,2.99,7.166,2.318,11.175c-0.109,0.662-0.621,1.257-0.948,1.885c-0.595-0.383-1.333-0.645-1.755-1.167
		c-1.068-1.32-1.957-2.784-2.981-4.143c-2.063-2.728-4.266-2.84-6.389-0.188c-0.939,1.173-1.551,2.615-2.271,3.961
		c-2.519,4.717-4.71,9.643-7.597,14.122c-4.93,7.65-13.981,9.251-21.628,4.237c-1.545-1.013-3.073-2.055-4.922-2.849
		c1.69,2.352,0.476,5.772,3.707,7.59c6.542,3.681,11.6,9.123,16.332,14.873c3.654,4.438,8.813,5.307,13.813,2.44
		c3.162-1.813,3.566-1.534,4.808,1.776c0.638,1.701,1.842,3.257,3.042,4.662c1.747,2.051,1.618,4.126,0.688,6.4
		c-1.346,3.294-3.292,5.041-8.589,7.53c0.517,3.824,1.254,7.65,1.51,11.506c0.73,11.013-1.326,21.239-9.463,29.383
		c-13.837,13.853-37.807,16.307-52.116,4.69c-7.544-6.122-14.353-13.271-18.341-22.545c-0.466-1.086-2.083-1.685-3.191-2.475
		c-1.113-0.799-2.419-1.394-3.349-2.36c-1.715-1.782-2.543-4.261-5.092-5.446c-1.67-0.773-1.103-3.194,1-3.839
		c2.812-0.865,5.747-1.32,8.709-1.967c0.446-2.633,0.715-5.603,1.479-8.437c2.493-9.276,8.813-15.091,17.479-18.604
		c2.331-0.944,3.047-0.221,3.97,2.229c0.696,1.851,2.011,3.506,3.221,5.12c1.119,1.493,1.323,2.732,0.562,4.602
		c-3.15,7.729-5.009,15.713-3.342,24.132c0.144,0.72,0.388,1.581,0.889,2.038c6.213,5.693,17.207,9.9,25.96,1.51
		c5.937-5.691,7.315-12.81,5.215-20.67c-2.792-10.457-10.318-16.452-19.624-20.724c-11.276-5.174-23.158-6.472-35.398-5.395
		c-9.114,0.799-17.934,2.907-26.559,5.89c-0.558,0.193-1.094,0.44-1.123,0.453c0.341,2.333,0.908,4.431,0.911,6.529
		c0.012,11.834-0.023,23.671-0.237,35.501c-0.068,3.909,0.665,7.34,3.296,10.322c0.836,0.948,1.366,2.167,2.346,3.764
		c-1.614,0.127-2.504,0.254-3.394,0.256c-10.134,0.015-20.271-0.021-30.406,0.039c-1.597,0.011-2.6-0.446-3.607-1.768
		c-1.548-2.022-3.439-3.79-5.247-5.607c-1.142-1.15-1.077-2.929,0.532-3.583c3.281-1.34,3.881-3.81,3.833-6.979
		c-0.119-7.899-0.04-15.804-0.04-24.412c-3.208,2.243-5.995,4.113-8.667,6.139c-0.462,0.349-0.597,1.352-0.601,2.052
		c-0.042,7.58-0.252,15.17,0.105,22.735c0.112,2.412,1.722,4.778,2.753,7.115c0.37,0.841,1.013,1.576,1.614,2.292
		c1.348,1.609,1.052,2.475-0.928,3.368c-10.098,4.571-17.866,11.776-23.103,21.523c-1.876,3.489-3.028,7.361-4.571,11.033
		c-0.328,0.786-0.923,1.464-1.396,2.191c-0.62-0.494-1.302-0.932-1.852-1.501c-1.842-1.909-3.736-3.78-5.394-5.848
		c-0.609-0.761-0.845-2.009-0.853-3.04c-0.066-8.26-0.025-16.523-0.055-24.783c-0.002-0.956-0.216-1.915-0.391-3.331
		c-4.34,3.161-6.7,6.995-7.336,11.699c-0.604,4.454-0.524,9.002-1.097,13.462c-1.586,12.41-5.554,23.827-14.576,32.964
		c-8.073,8.177-18.183,11.87-29.373,12.448c-6.072,0.312-12.206-0.425-18.303-0.854c-0.923-0.062-1.926-0.86-2.645-1.571
		c-1.946-1.922-3.806-3.943-5.59-6.015c-0.437-0.503-0.815-1.525-0.586-2.017c0.333-0.716,1.148-1.443,1.911-1.681
		c3.479-1.081,7.126-1.696,10.501-3.023c13.685-5.373,22.165-16.814,23.201-31.346c-0.986,0-1.947,0-2.905,0
		c-11.329,0-22.658-0.087-33.985,0.063c-2.69,0.035-4.558-0.605-5.76-3.08c-0.462-0.95-1.248-1.74-2.452-2.472
		c0,0.877,0,1.759,0,2.637c0,14.14,0.014,28.276-0.033,42.417c-0.002,1.002-0.472,2-0.722,3.002
		c-0.815-0.623-1.711-1.16-2.429-1.879c-1.753-1.747-3.442-3.564-5.111-5.391c-0.387-0.424-0.745-0.981-0.861-1.53
		c-1.545-7.415-7.143-10.164-13.66-11.545c-2.537-0.541-4.222-1.585-5.642-3.723c-1.071-1.613-2.899-2.707-4.118-4.25
		c-0.599-0.762-0.809-2.005-0.813-3.036c-0.052-12.436-0.089-24.871,0.013-37.304c0.019-2.464-0.306-4.502-2.473-5.98
		c-0.759-0.52-1.331-1.313-2.002-1.965c-1.375-1.333-1.574-2.94,0.1-3.855c4.848-2.649,5.228-6.875,4.893-11.683
		c-0.268-3.889-0.054-7.811-0.054-11.934c-3.252,0-6.33,0-9.678,0c0,0.958,0,1.869,0,2.782c0,6.897,0.189,13.806-0.066,20.692
		c-0.181,4.899,0.953,9.188,4.18,12.847c1.697,1.922,1.928,3.494-0.607,4.774c-2.955,1.497-3.644,3.866-3.542,7.1
		c0.251,7.914,0.106,15.842,0.043,23.76c-0.006,0.799-0.536,1.593-0.823,2.392c-0.63-0.486-1.348-0.898-1.874-1.477
		c-1.782-1.967-2.581-4.812-5.417-5.872c-0.466-0.175-0.803-1.094-0.921-1.722c-1.558-8.173-5.929-14.345-13.063-18.591
		c-1.387-0.827-2.66-1.876-4.107-2.57c-3.903-1.863-7.282-4.24-9.422-8.155c-0.405-0.745-1.37-1.211-2.127-1.73
		c-1.934-1.331-1.997-3.2,0.112-4.097c3.514-1.497,4.666-4.211,4.664-7.727c-0.002-9.456-0.01-18.911,0.006-28.364
		c0.006-2.602-1.664-4.18-3.425-5.652c-3.679-3.075-3.901-3.672-0.269-6.525c2.997-2.357,3.831-5.036,3.772-8.733
		c-0.21-13.625-0.079-27.254-0.087-40.883c-0.004-2.99-2.25-6.057-5.613-7.382c1.387,1.984,2.533,3.739,3.797,5.398
		c1.121,1.47,1.212,2.397-0.763,3.257c-4.188,1.823-6.224,5.386-6.251,9.74c-0.121,20.435-0.054,40.871-0.054,61.577
		c2.292-0.165,3.028,0.991,3.581,3.14c0.495,1.934,2.171,3.604,3.464,5.286c0.996,1.293,1.056,2.2-0.152,3.495
		c-4.937,5.297-7.904,11.465-7.534,18.888c0.087,1.793-0.715,2.154-2.271,2.143c-6.039-0.05-12.082-0.021-18.896-0.021
		c0.701,1.598,0.971,3.023,1.799,3.947c2.857,3.173,3.764,6.746,3.57,10.983c-0.291,6.461-0.077,12.942-0.077,19.418
		c0,1.41,0.044,2.653-2.004,2.82c-9.474,0.757-13.849,5.099-14.49,14.693c-0.177,2.611-0.994,3.219-3.485,3.211
		c-24.359-0.088-48.718-0.071-73.076-0.013c-1.896,0.004-3.09-0.521-4.238-2.084c-1.456-1.983-3.367-3.631-5.049-5.456
		c-1.119-1.219-1.214-2.646,0.229-3.485c5.544-3.231,6.694-8.343,6.654-14.198c-0.087-13.03-0.316-26.072,0.125-39.09
		c0.162-4.82-1.83-8.006-4.731-11.143c-1.038-1.122-2.194-2.138-3.296-3.204c-1.406-1.362-1.281-2.661,0.167-3.903
		c0.195-0.166,0.362-0.378,0.578-0.503c5.508-3.176,6.559-7.939,6.436-14.089c-0.41-20.435-0.16-40.88-0.144-61.321
		c0-1.74,0.087-3.294-1.988-4.208c-0.952-0.418-1.391-1.887-2.221-2.721c-1.632-1.639-3.375-3.169-5.072-4.741
		c0-0.853,0-1.705,0-2.558c1.189-0.315,2.379-0.902,3.57-0.908c15.245-0.061,30.489-0.023,45.734-0.061
		c2.167-0.004,3.6,0.199,4.032,2.97c0.274,1.744,1.927,3.35,3.169,4.845c1.512,1.821,1.543,2.978-0.611,4.444
		c-3.444,2.343-6.393,5.209-5.972,9.967c0.023,0.243,0.133,0.478,0.204,0.717c6.479-2.364,10.256-8.391,9.815-15.623
		c-0.278-4.604-0.25-4.633,4.257-4.635c5.095-0.002,10.189-0.002,15.538-0.53c-0.584-0.447-1.125-0.969-1.757-1.329
		c-1.901-1.075-2.337-2.357-0.898-3.886c5.332-5.656,7.091-12.633,7.623-20.069c0.133-1.884,0.826-2.979,2.791-2.727
		c9.738,1.261,19.137-0.503,28.447-3.11c3.321-0.932,3.194-0.821,4.619,2.543c0.842,1.994,2.36,3.727,3.699,5.479
		c0.984,1.285,0.847,2.075-0.399,3.154c-6.122,5.301-8.197,12.4-8.979,20.705c3.4,0,6.975,0.981,9.532-0.212
		c4.702-2.195,9.325-1.031,13.92-1.104c15.497-0.247,31.001-0.068,46.501-0.12c2.275-0.006,3.215,0.634,4.379,2.967
		c2.217,4.434,4.396,9.528,10.429,10.434c1.811,0.271,2.905,1.079,3.329,3.2c0.327,1.619,1.834,2.99,2.76,4.504
		c0.767,1.256,1.449,2.558,2.227,3.938c3.015-2.629,4.758-6.218,5.612-10.14c0.776-3.552,1.144-7.209,1.429-10.842
		c0.162-2.071,0.988-2.87,2.997-2.868c24.698,0.021,49.398,0.019,74.095-0.002c1.803,0,2.552,0.74,3.222,2.495
		c0.85,2.237,2.37,4.263,3.805,6.232c1.228,1.688,0.499,2.223-1.039,2.942c-6.919,3.235-10.493,8.771-10.515,16.382
		c-0.062,24.104-0.022,48.206-0.017,72.308c0,0.669,0.067,1.339,0.096,1.856c2.373,0.552,4.604,1.071,6.838,1.591
		c0.127,0.316,0.254,0.635,0.383,0.95c0.368-0.975,1.05-1.948,1.056-2.926c0.079-10.306,0.169-20.613-0.068-30.913
		c-0.039-1.692-1.518-3.431-2.563-4.995c-0.589-0.881-1.67-1.426-2.491-2.166c-1.519-1.369-1.73-3.117,0.098-3.997
		c5.051-2.438,5.275-6.592,5.154-11.416c-0.258-10.298-0.022-20.607-0.12-30.914c-0.021-2.414,0.626-3.674,3.173-4.289
		c5.301-1.283,8.269-5.164,9.726-10.178c0.676-2.326,1.895-3,4.211-2.992c18.823,0.075,37.645,0.057,56.466,0.025
		c2.099-0.004,3.317,0.33,3.872,2.878c0.437,1.996,2.257,3.73,3.583,5.487c1.075,1.425,1.231,2.381-0.538,3.443
		c-2.46,1.475-4.126,3.837-4.214,6.665c-0.214,6.862-0.07,13.735-0.07,20.537c6.481-1.167,12.789-2.566,19.171-3.377
		c6.313-0.803,12.703-0.998,19.056-1.508c0.766-0.061,1.913-0.202,2.194-0.696c1.797-3.17,4.583-2.966,7.586-2.704
		c1.761,0.154,3.568-0.208,5.356-0.339c0.116-0.318,0.235-0.634,0.352-0.95c-1.499-1.851-2.999-3.701-4.559-5.627
		c-1.665,2.641-4.204,2.77-6.163,0.536c-0.335-0.382-0.622-0.809-0.919-1.223c-2.027-2.832-2.023-2.832-4.386-0.32
		c-1.304,1.388-2.679,0.799-3.76-0.157c-1.191-1.053-2.269-2.309-3.13-3.646c-1.655-2.581-3.876-4.034-6.892-4.677
		c-1.349-0.287-2.667-1.306-3.718-2.292c-3.211-3.015-6.115-6.371-9.461-9.216c-2.729-2.318-2.893-5.17-2.828-8.249
		c0.008-0.397,0.218-1.071,0.466-1.138c4.375-1.177,2.875-6.551,6.427-8.669c3.213-1.918,5.669-5.1,8.466-7.713
		c3.171-2.966,6.347-5.925,9.532-8.871c2.063-1.909,3.023-1.788,4.704,0.645c0.896-0.586,1.794-1.177,2.635-1.73
		c-0.066-0.994-0.522-2.171-0.131-2.886c2.52-4.619,1.626-9.449,1.021-14.224c-0.734-5.798-0.729-11.55,0.726-17.21
		c0.281-1.092,1.368-2.522,2.34-2.766c1.641-0.405,1.95,1.144,2.385,2.57c0.451,1.477,1.466,2.891,2.57,3.995
		c0.389,0.389,2.101,0.105,2.651-0.438c2.768-2.722,5.367-5.616,7.985-8.484c0.567-0.621,0.877-1.49,1.479-2.066
		c1.285-1.229,3.11-0.668,3.587,1.029c0.066,0.241-0.064,0.591,0.064,0.753c3.591,4.504,4.612,9.757,5.356,15.349
		c0.3,2.243,3.27,4.13,5.024,6.178c0.332-0.195,0.665-0.393,0.998-0.591c0.258-1.002,0.516-2.004,0.779-3.031
		c-0.763-0.499-1.488-0.821-2.011-1.348c-1.247-1.256-1.401-2.895,0.239-3.622c6.214-2.767,7.786-8.372,9.112-14.179
		c1.626-7.126,3.73-14.011,9.479-19.068c1.521-1.339,3.169-2.539,4.758-3.801c0.851,0,1.703,0,2.556,0
		c1.565,2.84,3.025,5.747,4.766,8.479c0.545,0.859,1.826,1.72,2.802,1.755c5.233,0.198,10.536,0.631,15.701,0.011
		c4.564-0.549,9-2.289,13.444-3.668c1.807-0.56,2.73-0.21,3.641,1.51c1.335,2.522,3.06,4.839,4.617,7.242
		C557.021,524.399,557.021,525.081,557.021,525.762z M319.282,710.221c0-1.29,0-2.294,0-3.299c0-21.801-0.009-43.606,0.006-65.407
		c0.004-5.96-0.098-11.928,0.181-17.875c0.263-5.54,2.732-10.119,7.188-13.524c1.096-0.839,2.272-1.572,3.637-2.504
		c-24.931,0-49.506,0-74.202,0c-0.246,10.098-1.87,19.518-11.516,26.164c3.843,0,6.866,0,10.006,0
		c0,9.696-0.052,19.147,0.046,28.597c0.019,1.832-0.611,2.736-2.242,3.431c-2.77,1.186-5.442,2.6-8.526,4.097
		c3.124,1.797,5.719,3.406,8.426,4.795c1.639,0.841,2.233,1.874,2.221,3.764c-0.092,13.454-0.214,26.915,0.029,40.367
		c0.1,5.677-2.071,10.022-5.905,13.835c-0.919,0.914-1.884,1.786-3.211,3.042c1.514,0,2.433,0,3.352,0
		c13.968,0,27.936-0.004,41.903,0.008c1.127,0,2.427-0.37,2.483,1.589c0.331,11.342-1.936,21.859-9.75,30.552
		c-6.056,6.741-13.812,10.618-22.483,12.843c-0.466,0.116-0.892,0.374-1.339,0.565c6.906,0.57,13.755,1.215,20.441,0.437
		c13.822-1.601,24.617-8.479,31.608-20.728c5.61-9.836,7.818-20.574,7.927-31.808c0.075-7.532,2.646-13.787,9.152-18.059
		c0.225-0.146,0.384-0.393,0.848-0.881C325.986,710.221,322.851,710.221,319.282,710.221z M337.199,747.474
		c5.292-14.97,14.905-25.925,30.149-32.972c-1.49-1.103-2.46-1.81-3.418-2.526c-2.082-1.56-2.688-3.598-2.629-6.205
		c0.169-7.493,0.269-15-0.033-22.483c-0.142-3.511,1.096-5.527,3.924-7.42c14.862-9.948,31.204-16.515,48.3-21.329
		c13.689-3.857,27.609-5.113,41.614-1.939c16.026,3.633,28.728,12.088,36.819,26.712c3.169,5.731,4.61,11.812,3.217,18.429
		c-2.637,12.526-14.679,19.458-26.667,15.014c-12.914-4.787-17.133-14.938-15.341-27.973c0.687-4.987,2.314-9.84,3.55-14.894
		c-4.154,1.431-7.761,3.848-10.729,7.157c-5.307,5.919-6.894,13.067-6.42,20.808c-6.023-0.661-7.575-0.495-9.8,1.031
		c5.71,1.585,9.299,5.286,11.399,10.755c2.173,5.656,5.664,10.454,10.412,14.282c14.822,11.952,37.253,8.866,50.786-3.848
		c8.738-8.203,10.526-18.897,9.482-30.272c-0.337-3.679-1.166-7.312-1.77-10.942c6.61-2.186,9.716-5.997,9.337-9.881
		c-6.357,3.098-13.614,4.112-19.057-4.334c-0.045-0.07-0.107-0.133-0.162-0.197c-5.568-6.707-12.158-12.128-20.096-15.811
		c-0.703-0.326-1.655-0.25-2.477-0.171c-2.261,0.208-4.509,0.655-6.767,0.679c-0.488,0.006-1.169-1.313-1.435-2.128
		c-0.246-0.751-0.053-1.645-0.053-2.489c-3.217-1.168-3.16-0.994-6.063-0.054c-1.011,0.324-2.377-0.466-3.583-0.726
		c-0.729-0.158-1.722-0.651-2.16-0.354c-2.35,1.601-3.683,1.491-5.7-0.368c-0.759-0.703-1.974-1.239-3-1.272
		c-9.406-0.306-18.676,0.939-27.854,2.847c-5.621,1.166-11.184,2.622-17.09,4.021c0-1.042,0-1.955,0-2.867
		c0-8.092,0.09-16.185-0.033-24.274c-0.076-5.186-0.089-10.241,4.584-14.021c-5.682,0-11.362,0-17.046,0
		c-12.944,0-25.892-0.024-38.838,0.055c-0.865,0.006-2.283,0.603-2.504,1.243c-2.163,6.321-6.111,10.688-12.851,12.269
		c0,1.063,0,1.992,0,2.924c0,12.009-0.025,24.018,0.033,36.029c0.006,1.505-0.354,2.532-1.668,3.383
		c-1.591,1.029-3.025,2.298-4.638,3.548c1.519,1.278,2.658,2.473,4.014,3.32c1.9,1.194,2.333,2.762,2.309,4.912
		c-0.112,9.282-0.302,18.578,0.058,27.849c0.177,4.521-0.728,8.118-4.35,10.898c-0.373,0.284-0.591,0.767-1.209,1.603
		c6.245,3.408,5.723,9.241,5.455,14.997c-0.027,0.595-0.004,1.191-0.004,1.789C337.199,737.341,337.199,742.406,337.199,747.474z
		 M137.019,748.919c0-9.058,0-17.728,0-26.243c-12.6,0-24.866,0-37.495,0c4.427,4.359,6.841,9.123,6.328,15.105
		c-0.376,4.382-4.477,11.013-7.688,11.237c-5.215,0.366-10.472,0.096-15.617,0.096c-0.139-0.457-0.229-0.615-0.229-0.773
		c-0.017-14.647-0.044-29.296,0.012-43.941c0.002-0.805,0.524-1.786,1.113-2.381c2.031-2.046,4.198-3.957,6.423-6.021
		c-2.373-2.233-4.25-4.214-6.357-5.912c-1.437-1.158-1.776-2.438-1.772-4.176c0.048-22.397,0.21-44.798-0.093-67.189
		c-0.075-5.586,1.867-9.486,6.047-12.685c0.302-0.233,0.566-0.516,1.11-1.011c-15.612,0-30.813,0-46.019,0
		c6.472,3.485,7.86,9.046,7.794,15.791c-0.208,21.714-0.108,43.432-0.029,65.146c0.008,2.005-0.607,3.314-2.138,4.509
		c-2.044,1.593-3.93,3.39-5.943,5.148c2.504,2.362,4.891,4.43,7.029,6.733c0.817,0.877,1.491,2.289,1.497,3.462
		c0.096,16.096,0.05,32.192,0.075,48.288c0.008,4.545-1.734,8.251-5.107,11.221c-0.414,0.361-1.046,0.474-1.576,0.698
		c0.21,0.237,0.42,0.475,0.63,0.711c25.155,0,50.309,0,75.63,0c0.551-4.574,0.975-9.104,4.124-12.714
		C128.019,750.287,132.347,749.085,137.019,748.919z M548.944,557.979c-7.606-4.554-11.626-10.764-11.241-19.306
		c0.37-8.185,4.242-14.774,9.983-20.483c-1.061,0.121-1.94,0.383-2.81,0.672c-8.129,2.714-16.426,3.463-24.918,2.283
		c-6.888-0.958-9.214-3.3-9.724-10.682c-2.321,2.188-4.476,3.937-6.286,5.988c-3.729,4.222-5.032,9.545-6.288,14.86
		c-1.526,6.446-3.198,12.821-10.392,16.174c1.479,0.396,2.418,0.646,3.296,0.882c-0.576,3.78-0.809,7.52-1.782,11.059
		c-0.983,3.576-1.586,7.317-4.412,10.328c-1.406,1.5-1.331,4.293-2.307,6.318c-2.466,5.13-5.943,9.523-10.521,12.961
		c-4.87,3.651-5.037,3.997-11.219,0.096c-4.689-2.961-9.223-5.999-15.286-6.257c1.56-2.095,2.921-3.92,4.283-5.746
		c-0.146-0.133-0.293-0.266-0.438-0.399c-2.338,1.738-4.675,3.478-7.012,5.216c-0.123-0.1-0.246-0.2-0.37-0.3
		c1.002-1.768,2.006-3.531,3.009-5.294c-6.551,5.548-12.734,11.354-18.9,17.181c-0.346,0.328-0.792,0.879-0.73,1.252
		c0.51,3.077-1.621,4.325-3.832,5.647c0.672,2.101-0.232,4.916,2.167,5.702c2.574-2.025,4.863-3.829,7.151-5.632
		c0.164,0.146,0.328,0.289,0.492,0.433c-1.403,2.51-1.029,5.923-5.007,8.002c2.106,0.786,3.607,1.348,4.979,1.859
		c2.41-5.413,4.806-10.206,10.035-11.521c-0.289-1.826-1.119-3.587-0.576-4.642c0.534-1.042,2.402-1.688,3.789-1.938
		c2.609-0.473,4.847,0.64,6.581,2.605c0.462,0.521,0.784,1.291,0.88,1.985c0.348,2.508,0.599,5.028,0.819,7.553
		c0.073,0.819,0.23,1.834-0.149,2.454c-1.786,2.907-3.631,5.772-7.503,6.325c-2.425,0.35-4.573,1.335-5.6,3.747
		c1.672,1.106,3.235,1.5,4.78-0.24c0.341-0.388,1.293-0.175,1.928-0.366c1.93-0.578,4.047-0.891,5.7-1.93
		c1.834-1.152,4.04-2.46,3.447-6.022c1.453,1.751,2.512,3.027,3.602,4.34c0.63-0.576,0.954-0.847,1.248-1.146
		c0.31-0.316,0.59-0.661,1.092-1.228c-0.662,2.87-1.261,3.511-3.968,3.843c-3.386,0.416-5.811,2.047-7.387,5.028
		c1.609,1.294,2.66,1.198,3.767,0.104c0.619-0.607,1.562-1.314,2.324-1.277c3.04,0.15,5.517-0.898,7.731-2.981
		c-0.476,0.975-1.052,1.788-1.794,2.396c-2.467,2.025-2.953,3.177-1.591,6.024c0.938,1.959,2.385,3.676,3.626,5.487
		c0.904,1.322,2.055,2.526,2.718,3.959c0.869,1.885,0.377,3.664-1.823,4.199c-1.861,0.451-3.833,0.479-5.763,0.621
		c-1.262,0.092-2.56-0.083-3.793,0.134c-0.482,0.083-0.838,0.906-1.249,1.393c0.555,0.324,1.074,0.757,1.674,0.944
		c0.525,0.166,1.154,0.149,1.707,0.054c2.117-0.374,4.109-0.354,5.284,1.011c1.74-1.017,3.252-2.304,4.988-2.795
		c1.549-0.44,1.932-1.227,1.88-2.484c-0.042-1.005-0.359-1.999-0.52-3.001c-0.412-2.564,0.646-4.933,2.341-5.693
		c1.101-0.495,2.08-1.254,3.047-1.855c-0.258,0.611-0.605,1.436-0.95,2.255c1.939,1.26,4.406,2.063,5.477,3.751
		c1.425,2.244,3.415,3.45,5.426,4.704c6.813,4.246,14.61,2.699,19.061-3.918c2.267-3.369,4.057-7.062,5.993-10.646
		c1.328-2.463,2.267-5.179,3.853-7.449c2.984-4.275,8.173-3.896,10.872,0.57c0.401,0.659,0.792,1.324,1.188,1.987
		c0.243-1.849,0.155-3.552-0.241-5.182c-0.742-3.036-2.614-5.224-5.729-5.885c-3.252-0.688-6.161,0.282-8.141,3.011
		c-1.439,1.983-2.477,4.255-3.762,6.353c-1.909,3.109-3.708,6.308-5.866,9.235c-2.386,3.235-5.848,4.3-9.762,3.521
		c-3.793-0.755-4.755-4.02-5.883-7.06c-0.816-2.207-1.547-4.446-2.391-6.886c6.717-5.968,12.229-13.163,16.264-21.611
		c2.484-5.211,5.808-5.792,10.923-2.97c1.036,0.569,2.115,1.106,3.229,1.493c3.13,1.085,6.312,1.622,9.707,0.728
		c-3.434-5.099-4.071-7.52-2.598-10.992c4.658-10.967,12.509-18.461,24.07-21.841C546.033,558.702,547.245,558.419,548.944,557.979z
		 M99.437,658.959c0.125,0.406,0.258,0.645,0.258,0.882c-0.029,14.051-0.006,28.103-0.15,42.153
		c-0.031,3.173-1.591,5.863-3.965,8.021c-0.574,0.521-1.14,1.05-1.978,1.821c20.119,0,39.759,0,59.635,0
		c-0.482-8.27,2.824-15.047,8.503-21.427c-2.922,0-5.178,0-7.754,0c0-1.248,0-2.244,0-3.242c0-21.803,0.063-43.606-0.043-65.407
		c-0.029-5.765,1-10.813,6.989-14.107c-20.376,0-40.129,0-59.972,0c0.898,8.135-1.709,14.531-8.44,19.404c2.397,0,4.797,0,7.546,0
		c0,6.441,0,12.572,0,19.141c7.326-4.803,15.049-6.392,23.257-6.527c0-1.543-0.025-2.813,0.004-4.084
		c0.079-3.482,0.01-6.98,0.333-10.443c0.241-2.601,1.763-3.641,4.362-3.633c3.032,0.011,4.375,1.331,4.396,4.658
		c0.054,8.518,0.019,17.033,0.006,25.551c-0.002,0.397-0.131,0.796-0.237,1.396c-1.027,0-1.947,0-2.868,0
		c-8.942,0-17.883-0.017-26.827,0.028c-0.855,0.005-1.938,0.138-2.514,0.657c-1.693,1.531-3.182,3.286-4.712,4.908
		C96.495,658.782,97.981,658.872,99.437,658.959z M225.286,606.604c-19.443,0-38.649,0-58.656,0
		c4.71,2.591,5.708,6.052,5.629,10.468c-0.233,12.598-0.329,25.21,0.033,37.801c0.156,5.395-0.611,9.828-5.481,12.806
		c-0.191,0.116-0.291,0.378-0.582,0.773c1.191,0.985,2.279,2.059,3.533,2.878c1.886,1.235,2.51,2.795,2.473,5.078
		c-0.142,8.767-0.1,17.538-0.04,26.31c0.035,5.132-0.031,10.151-5.772,12.78c12.969,6.958,23.963,15.371,29.248,29.526
		c0.22-6.75,0.461-13.394,0.133-20.007c-0.216-4.398,0.292-8.048,4.691-10.127c0.279-0.131,0.454-0.482,0.711-0.771
		c-0.923-0.847-1.718-1.77-2.687-2.429c-2.277-1.547-2.849-3.596-2.803-6.299c0.166-9.534,0.066-19.073,0.066-28.609
		c0-0.902,0-1.807,0-3.042c4.637,0,8.925,0,13.182,0c0-4.539,0-8.736,0-13.157c-4.515,0-8.823,0-13.136,0
		c0-13.699,0-27.168,0-40.766c3.872,0,7.525-0.011,11.179,0.004c4.618,0.017,7.02,2.448,7.028,7.096c0.004,3.541,0,7.08,0,10.624
		c8.569,0,16.781,0,25.01,0c0-5.989,0-11.813,0-17.58C231.951,617.946,226.16,614.822,225.286,606.604z M238.308,775.623
		c0-0.897,0-1.801,0-2.698c0-17.713,0.112-35.424-0.083-53.133c-0.046-4.157,0.314-7.706,4.163-10.066
		c0.401-0.246,0.641-0.753,1.262-1.517c-6.315-2.508-5.521-7.829-5.346-12.926c0.031-0.936,0.004-1.873,0.004-2.81
		c0-3.983,0-7.966,0-11.88c-0.509-0.185-0.744-0.339-0.977-0.341c-6.981-0.027-13.964-0.004-20.945-0.07
		c-1.684-0.015-1.676,0.967-1.672,2.152c0.017,5.194-0.166,10.396,0.063,15.581c0.181,4.165-0.435,7.717-4.529,9.801
		c-0.522,0.266-1.009,0.601-1.556,0.932c1.202,1.181,1.926,2.033,2.787,2.711c2.017,1.589,2.741,3.5,2.678,6.149
		c-0.198,8.17-0.073,16.347-0.073,24.519c0,5.016,0,10.031,0,15.172C225.483,758.971,233.284,765.197,238.308,775.623z
		 M403.604,662.076c-0.884,0.248-1.55,0.357-2.156,0.611c-6.424,2.679-12.818,5.424-19.263,8.048
		c-1.674,0.682-2.225,1.651-2.208,3.456c0.087,9.707,0.019,19.414,0.052,29.121c0.015,3.812,0.484,7.717-3.907,10.477
		c10.845,0,20.878,0,31.647,0c-3.76-2.408-4.267-5.49-4.209-8.994c0.14-8.258,0.044-16.518,0.044-24.777
		C403.604,674.149,403.604,668.286,403.604,662.076z M466.764,589.65c6.457-4.813,12.261-9.611,13.958-17.756
		c0.256-1.223,0.523-2.795,1.372-3.478c3.007-2.42,3.156-6.047,4.448-9.199c0.736-1.797,0.291-2.784-1.3-3.964
		c-5.652-4.189-10.248-9.249-11.695-16.454c-0.317-1.591-0.332-3.242-0.516-5.183c-1.31,1.73-2.311,3.209-3.475,4.544
		c-1.227,1.405-2.508,2.803-3.947,3.98c-4.851,3.972-8.569,2.936-10.767-3.336c-1.044,4.774-1.362,9.125-0.845,13.55
		c0.696,5.951,1.832,11.922-0.959,18.433c3.29-1.81,4.887,0.229,6.191,1.976c1.86,2.491,3.504,5.215,4.782,8.047
		C465.184,583.406,465.745,586.275,466.764,589.65z M202.87,629.033c0,9.92,0,19.574,0,29.5c1.609,0,3.038,0.054,4.462-0.013
		c2.281-0.112,4.356-0.092,4.354,3.086c0,0.477,0.719,0.952,1.47,1.88c0-2.325-0.011-4.02,0.002-5.715
		c0.091-11.116-1.352-9.592,9.555-9.682c4.34-0.037,8.678,0.013,13.015-0.015c2.51-0.015,5.199-0.393,5.157,3.429
		c-0.004,0.279,0.331,0.591,0.562,0.832c3.371,3.552,4.616,7.761,3.951,12.579c-0.05,0.378,0.075,0.782,0.152,1.499
		c2.438-1.166,4.627-2.217,6.781-3.248c0-6.806,0-13.5,0-20.512c-2.787,0.851-4.5-0.574-5.891-2.77
		c-0.208,1.543-0.318,2.825-0.185,4.084c0.237,2.208-0.562,2.976-2.849,2.936c-7.313-0.129-14.631-0.112-21.947-0.004
		c-1.757,0.027-2.799-0.591-3.776-1.955c-1.264-1.757-2.81-3.311-4.138-5.025c-0.707-0.913-1.628-1.94-1.73-2.984
		c-0.25-2.578-0.081-5.198-0.081-7.902C208.601,629.033,205.829,629.033,202.87,629.033z M238.187,650.631
		c-7.644,0-15.072,0-22.41,0c0,7.811,0,15.422,0,23.051c7.569,0,14.93,0,22.41,0C238.187,665.942,238.187,658.383,238.187,650.631z
		 M156.067,575.646c-10.35,2.71-20.042,4.579-30.221,3.316c-0.316,7.688-2.346,14.63-6.719,20.901
		c8.998-3.17,17.952-5.058,27.536-2.938C147.522,588.958,149.647,581.724,156.067,575.646z M89.364,746.934
		c2.658,0,5.028,0.068,7.395-0.044c0.693-0.031,1.622-0.387,1.997-0.911c1.605-2.241,3.651-4.419,4.417-6.958
		c1.714-5.664-0.985-10.193-4.854-14.19c-0.752-0.777-1.187-1.908-1.611-2.942c-0.352-0.853-0.214-1.998-0.734-2.668
		c-2.036-2.62-4.247-5.103-6.609-7.896C89.364,723.287,89.364,734.92,89.364,746.934z M245.395,732.421
		c3.783-3.552,6.698-6.7,6.704-11.489c0.017-12.754,0.01-25.507-0.006-38.26c-0.002-0.657,0.059-1.574-0.322-1.926
		c-2.034-1.884-4.2-3.629-6.155-5.282c-1.634,2.316,2.429,6.831-3.572,8.081c4.132,2.944,3.319,7.1,3.339,11.046
		c0.013,2.55,0.146,5.111-0.029,7.648c-0.312,4.439,0.632,8.435,3.776,11.683c1.998,2.066,1.468,3.51-0.591,5.157
		c-1.258,1.006-2.774,2.412-3.005,3.83C245.066,725.774,245.395,728.773,245.395,732.421z M89.489,660.402
		c-0.256,0.169-0.512,0.335-0.77,0.501c0,8.926,0.046,17.854-0.029,26.779c-0.021,2.45-0.027,4.741,2.377,6.234
		c0.385,0.239,0.58,0.807,0.819,1.248c1.495,2.736,2.978,5.483,4.465,8.227c0.241-0.101,0.478-0.2,0.717-0.3
		c0.139-1.077,0.395-2.154,0.397-3.231c0.034-9.956,0.025-19.913,0.004-29.869c-0.002-0.552-0.085-1.235-0.408-1.631
		c-1.477-1.797-3.013-3.552-4.604-5.248C91.543,662.139,90.483,661.301,89.489,660.402z M88.819,657.25
		c1.21-0.239,2.308-0.23,3.173-0.674c1.907-0.976,3.781-2.064,5.511-3.325c1.144-0.832,2.017-2.042,3.219-3.302
		c-0.042-0.046-0.396-0.849-0.898-0.955c-2.131-0.455-2.275-1.904-2.229-3.657c0.071-2.882,0.017-5.769,0.017-8.718
		c-4.238-1.064-4.025-7.053-8.792-7.706C88.819,638.397,88.819,647.729,88.819,657.25z M471.67,630.14
		c-0.225,1.003-0.67,1.776-0.456,2.25c0.888,1.961,1.778,3.977,3.036,5.698c2.184,2.994,2.005,4.462-1.081,6.347
		c-0.711,0.435-1.182,1.264-1.762,1.913c0.158,0.236,0.316,0.474,0.473,0.713c1.455-0.191,3.127,0,4.316-0.668
		c1.595-0.897,2.156-6.729,1.377-8.421c-0.676-1.469-1.025-3.089-1.521-4.642c0.202-0.096,0.403-0.191,0.605-0.287
		C475.13,632.153,473.602,631.263,471.67,630.14z M454.191,574.063c-0.264,0.177-0.53,0.351-0.794,0.525
		c1.289,1.861,2.53,3.756,3.882,5.573c1.021,1.372,1.937,2.668,0.073,4.138c2.16,1.493,4.073,2.816,5.984,4.139
		c0.208-0.121,0.416-0.241,0.624-0.362c-0.871-2.604-1.712-5.221-2.653-7.802c-0.125-0.345-0.792-0.753-1.16-0.711
		c-1.861,0.212-2.73-0.944-3.59-2.277C455.834,576.17,454.986,575.134,454.191,574.063z M117.375,650.023
		c0.033,0.279,0.066,0.562,0.098,0.841c3.651,0,7.305,0.058,10.953-0.048c0.69-0.02,1.36-0.676,2.042-1.04
		c-0.14-0.352-0.279-0.705-0.416-1.055C125.825,649.154,121.6,649.587,117.375,650.023z M449.196,607.175
		c0.331-0.021,0.659-0.044,0.99-0.067c-0.235-1.729-0.47-3.464-0.724-5.331C446.39,603.005,446.39,603.005,449.196,607.175z
		 M442.409,610.905c0.158,0.324,0.316,0.648,0.475,0.975c1.751-0.779,3.499-1.558,5.25-2.335c-0.21-0.437-0.42-0.869-0.63-1.306
		C445.807,609.129,444.108,610.015,442.409,610.905z"/>
	<path fill-rule="evenodd" clip-rule="evenodd" fill="#421218" d="M283.474,670.424c3.165,1.534,5.714,2.856,8.339,4.013
		c1.345,0.595,1.884,1.352,1.874,2.878c-0.069,9.88-0.031,19.76-0.046,29.641c-0.002,0.762-0.11,1.524-0.218,2.281
		c-0.562,3.96-2.042,5.559-5.255,5.708c-3.999,0.186-6.752-1.707-7.617-5.29c-0.195-0.819-0.32-1.678-0.322-2.518
		c-0.017-23.933-0.033-47.867,0.002-71.8c0.009-5.908,3.163-8.553,8.524-7.352c3.036,0.679,4.818,2.747,4.855,6.301
		c0.1,9.88,0.073,19.76-0.031,29.639c-0.008,0.751-0.867,1.77-1.599,2.186C289.409,667.563,286.718,668.802,283.474,670.424z
		 M287.267,712.67c3.007-0.179,3.995-1.342,4.018-4.979c0.05-7.748,0.017-15.496,0.017-23.244c0-4.051,0-4.051-4.034-5.446
		C287.267,690.216,287.267,701.44,287.267,712.67z M287.163,665.582c4.138-1.363,4.138-1.363,4.138-5.273c0-5.522,0-11.046,0-16.569
		c0-2.171,0-4.337,0-6.509c-0.295-0.157-0.593-0.319-0.888-0.478c-0.921,1.14-2.2,2.152-2.672,3.456
		c-0.557,1.539-0.541,3.327-0.555,5.012C287.134,651.979,287.163,658.739,287.163,665.582z"/>
	<path fill-rule="evenodd" clip-rule="evenodd" fill="#421218" d="M379.782,619.355c0.104,0.69,0.22,1.099,0.223,1.506
		c0.01,10.801,0.035,21.598-0.04,32.396c-0.006,0.742-0.571,1.825-1.195,2.162c-5.66,3.055-11.394,5.979-17.26,9.019
		c-0.035-0.426-0.14-1.125-0.142-1.823c-0.01-11.479,0.011-22.957-0.026-34.434c-0.007-1.369,0.266-2.259,1.538-3.113
		c1.431-0.963,2.762-2.327,3.623-3.813c0.844-1.456,1.682-2.012,3.348-1.94C373.071,619.453,376.303,619.355,379.782,619.355z
		 M377.715,628.732c-2.293-0.668-3.768-0.318-4.791,1.809c-0.56,1.167-1.626,2.277-2.745,2.942
		c-1.593,0.946-1.809,2.159-1.788,3.802c0.077,6.043,0.025,12.09,0.037,18.137c0.003,0.705,0.108,1.41,0.167,2.125
		c0.399-0.05,0.584-0.024,0.722-0.096c2.736-1.363,6.563-2.079,7.899-4.294c1.406-2.331,0.47-6.099,0.491-9.238
		C377.738,638.832,377.715,633.746,377.715,628.732z"/>
	<path fill-rule="evenodd" clip-rule="evenodd" fill="#421218" d="M132.779,680.28c0,4.082-0.054,8.164,0.021,12.243
		c0.04,2.067-0.771,2.97-2.87,2.855c-1.865-0.102-3.741-0.052-5.61-0.015c-1.485,0.027-2.15-0.588-2.144-2.129
		c0.035-8.589,0.038-17.173-0.002-25.761c-0.008-1.722,0.717-2.533,2.412-2.521c0.17,0,0.339-0.008,0.509-0.004
		c9.208,0.075,7.528-0.974,7.675,7.424C132.818,675.011,132.779,677.647,132.779,680.28z M130.146,674.495
		c-1.402,2.824-1.123,17.131,0,18.444C130.146,686.697,130.146,680.596,130.146,674.495z"/>
</g>
</svg>
